<svg width="136" height="136" viewBox="0 0 136 136" fill="none" xmlns="http://www.w3.org/2000/svg">
<path d="M14.0781 49.8313C10.6781 50.4953 8.4734 52.275 7.70309 55.0109C7.4109 56.0469 7.80934 56.2859 10.1468 56.4719L12.139 56.6578L12.6437 55.6219C12.989 54.9313 13.4937 54.4266 14.1843 54.0813C15.1406 53.6297 15.3265 53.6031 16.3093 53.9484C17.5578 54.3734 18.0625 55.1703 18.0625 56.7641C18.0625 57.9859 18.1156 57.9594 15.0078 58.3047C12.8297 58.5703 10.5187 59.3141 9.42965 60.1375C6.58747 62.3156 6.08278 67.0172 8.39372 69.5938C9.5359 70.8688 10.7578 71.2938 13.0687 71.2406C15.0875 71.2141 16.2562 70.7891 17.5843 69.6203C18.1156 69.1688 18.5937 68.7969 18.6734 68.7969C18.7531 68.7969 19.364 69.3547 20.0281 70.0453C21.1703 71.2672 21.25 71.2938 21.8609 70.9219C22.2062 70.7094 23.0828 70.0188 23.8 69.3813L25.075 68.2391L24.3047 66.8578L23.5078 65.4766L23.375 59.7656C23.2687 54.8516 23.1625 53.9219 22.7375 53.0188C22.1531 51.85 20.5593 50.6016 19.1515 50.2031C18.0093 49.8578 15.0343 49.6453 14.0781 49.8313ZM18.0625 62.6078C18.0359 65.9016 15.9375 68.1594 13.6797 67.3094C12.5906 66.8844 12.139 64.3875 12.9093 62.9266C13.414 61.8906 15.1406 61.1203 16.814 61.0938H18.0625V62.6078Z" fill="#ACB0B7"/>
<path d="M62.8203 50.0172C60.9875 50.4953 59.4203 51.3453 58.6234 52.3016C57.8266 53.2578 56.9766 55.3297 57.1891 55.8609C57.3219 56.2328 59.0484 56.5781 60.8281 56.5781C61.7313 56.5781 61.8375 56.4984 62.2359 55.5156C62.9531 53.6297 65.5563 53.0984 66.9109 54.5594C67.4688 55.1437 68.0531 57.9062 67.6016 57.9062C66.4063 57.9062 61.4656 58.8625 60.4828 59.2875C58.9156 59.9516 57.2156 61.8375 56.8172 63.325C56.6578 63.9094 56.5781 65.1844 56.6313 66.1672C56.8172 69.5141 58.8359 71.2672 62.4219 71.2406C64.4672 71.2141 65.7953 70.7625 67.3094 69.5406L68.3188 68.7172L69.3813 69.9656C69.9656 70.6297 70.6297 71.1875 70.8688 71.1875C71.1078 71.1875 72.0906 70.4969 73.0203 69.6469L74.6938 68.1328L73.8969 66.8047L73.1 65.4766L72.9672 59.8984C72.8875 55.675 72.7813 54.0812 72.4625 53.3641C71.9578 52.1953 70.2047 50.6547 68.8766 50.2297C67.3359 49.7516 64.3078 49.6453 62.8203 50.0172ZM67.6281 62.8734C67.4156 64.9187 66.8844 66.1937 65.9281 66.9375C65.1313 67.575 63.8297 67.6281 63.0328 67.0703C61.8641 66.2469 61.7313 63.7234 62.7406 62.475C63.325 61.7844 65.1578 61.0937 66.5125 61.0937H67.8141L67.6281 62.8734Z" fill="#ACB0B7"/>
<path d="M35.4609 50.4422C34.3188 50.9734 33.7609 51.5047 33.1234 52.7266L32.6984 53.5234L32.6719 52.1953C32.6719 51.4516 32.5391 50.7078 32.3531 50.5219C31.875 50.0437 28.5547 50.0969 28.05 50.6281C27.6781 50.9734 27.625 52.275 27.625 60.6953C27.625 69.1156 27.6781 70.4172 28.05 70.7625C28.3422 71.0547 28.9797 71.1875 30.175 71.1875C33.1234 71.1875 32.9375 71.6656 32.9375 64.0156C32.9375 56.7641 33.1234 55.6219 34.425 55.0109C36.0719 54.2672 37.3734 54.9844 37.7453 56.8437C37.8516 57.5078 37.9578 60.9344 37.9844 64.4406C37.9844 71.7453 37.7984 71.1875 40.4016 71.1875C43.1906 71.1875 43.0312 71.6125 43.0312 64.2016C43.0312 60.6687 43.1641 57.3484 43.2969 56.8172C43.6422 55.6219 44.3062 55.0109 45.475 54.825C46.1922 54.6922 46.5641 54.7984 47.175 55.3297L47.9453 55.9937L48.025 63.3781C48.0781 68.7437 48.1844 70.8422 48.4234 70.975C48.8484 71.2406 52.3813 71.2406 52.8063 70.9484C53.0719 70.7891 53.125 68.9562 53.0719 61.9703L52.9922 53.2047L52.3281 52.2484C50.9734 50.2297 47.8391 49.3797 45.5547 50.4422C44.4656 50.9203 42.7656 52.6203 42.7656 53.2047C42.7656 53.3906 42.3938 52.9656 41.9422 52.275C40.5344 50.0969 37.825 49.3531 35.4609 50.4422Z" fill="#ACB0B7"/>
<path d="M99.5827 50.2828C97.1655 51.1859 95.8905 52.4078 94.7218 55.0109C92.6765 59.4469 93.5265 66.1672 96.528 69.1422C99.4765 72.0906 104.178 72.2234 107.286 69.4344C112.598 64.6531 111.509 53.3375 105.48 50.6547C103.939 49.9906 100.911 49.7781 99.5827 50.2828ZM103.859 54.6656C104.842 55.6484 105.32 58.3844 105.108 61.9172C104.948 65.0516 104.337 66.6719 103.116 67.1766C101.548 67.8141 100.22 67.0172 99.6358 65.1047C99.1312 63.3781 98.9718 59.5266 99.3437 57.375C99.7421 54.9578 100.592 53.9219 102.133 53.9219C102.85 53.9219 103.301 54.1344 103.859 54.6656Z" fill="#ACB0B7"/>
<path d="M121.523 50.3094C120.594 50.7344 119.505 51.85 118.92 52.9922L118.495 53.7891L118.469 52.3281C118.469 51.5047 118.336 50.7078 118.15 50.5219C117.831 50.2031 114.856 50.0703 114.112 50.3625C113.741 50.4953 113.687 51.6641 113.687 60.6953C113.687 72.2234 113.448 71.1875 116.105 71.1875C118.894 71.1875 118.734 71.5594 118.734 64.5203C118.734 60.8812 118.867 57.9328 119.027 57.2156C119.664 54.6922 122.373 53.8156 123.383 55.8078C123.702 56.3922 123.781 57.9062 123.781 63.4578C123.781 71.5328 123.675 71.1875 126.331 71.1875C129.306 71.1875 129.094 71.7719 129.094 63.2453C129.094 55.2234 128.908 53.55 127.872 51.9828C126.703 50.2031 123.595 49.3797 121.523 50.3094Z" fill="#ACB0B7"/>
<path d="M77.8813 50.4422C77.6422 50.575 77.5625 51.1859 77.6156 52.4875L77.6953 54.3203L81.175 54.4531L84.6547 54.5859L80.936 59.8984C78.9172 62.8203 77.1375 65.4766 77.0047 65.8219C76.6594 66.6984 76.7125 69.9656 77.0578 70.3109C77.2703 70.5234 77.775 70.4172 78.9172 69.9656C82.1844 68.6375 86.0094 68.6109 89.3297 69.8594C91.6141 70.7359 91.6406 70.7094 91.6406 68.2391V66.1141L90.2328 65.4766C88.7188 64.7859 86.5672 64.2812 85.1063 64.2812C84.6016 64.2812 84.2031 64.2281 84.2031 64.1484C84.2031 64.0687 85.8235 61.7047 87.7891 58.9156L91.375 53.7891V52.1687C91.375 50.9203 91.2688 50.4953 90.95 50.3625C90.3125 50.1234 78.2797 50.1766 77.8813 50.4422Z" fill="#ACB0B7"/>
</svg>
