<svg width="129" height="74" viewBox="0 0 129 74" fill="none" xmlns="http://www.w3.org/2000/svg">
<path d="M65.8163 10.0032C65.4214 10.0297 65.0265 10.1222 64.9476 10.1882C64.8554 10.2675 64.421 10.2939 63.9471 10.2543C63.3811 10.2014 63.2363 10.2147 63.5128 10.2939C63.7365 10.36 64.1446 10.4261 64.4342 10.4393L64.9607 10.4657L64.5132 10.5979C64.2367 10.6772 64.1183 10.7697 64.1972 10.8489C64.4079 11.0604 64.2367 11.7607 63.9603 11.7607C63.8287 11.7607 63.6707 11.8532 63.6049 11.9722C63.5391 12.0911 63.4469 12.1704 63.4075 12.1704C63.3548 12.1572 63.3153 12.1968 63.3285 12.2497C63.3285 12.2893 63.2495 12.3818 63.1442 12.4479C63.0126 12.5139 62.9731 12.6593 63.0257 12.8443C63.0784 13.0689 63.052 13.1086 62.8809 13.0425C62.7361 12.9897 62.6571 13.0293 62.6571 13.1482C62.6571 13.2539 62.7625 13.3464 62.8809 13.3464C62.9994 13.3464 63.052 13.3861 62.9994 13.4389C62.9072 13.5447 62.8546 13.5579 62.5124 13.5975C62.4334 13.5975 62.3939 13.7297 62.4334 13.8882C62.4992 14.1129 62.4597 14.1525 62.2491 14.0997C62.1175 14.06 61.999 14.0864 61.999 14.1525C61.999 14.2186 62.0911 14.2714 62.1964 14.2714C62.3017 14.2714 62.3939 14.3904 62.3939 14.5357C62.3939 14.7075 62.3017 14.8 62.1306 14.8C61.9858 14.8 61.8673 14.8925 61.8673 14.9982C61.8673 15.1172 61.7094 15.2361 61.4856 15.2757C61.2092 15.3418 61.1302 15.4211 61.1697 15.5929C61.2092 15.7514 61.1434 15.8572 60.9854 15.8968C60.788 15.9497 60.788 15.9629 60.9722 15.9761C61.1039 15.9893 61.1829 16.095 61.1697 16.2668C61.1565 16.465 61.0776 16.5179 60.8801 16.4914C60.6432 16.4386 60.6168 16.4914 60.6563 16.7954C60.709 17.1257 60.6695 17.1654 60.3009 17.1522C60.0771 17.1389 59.8534 17.1786 59.8007 17.2182C59.7612 17.2711 59.827 17.3107 59.9455 17.3107C60.1035 17.3107 60.1561 17.3768 60.1035 17.5089C60.0508 17.6411 60.1298 17.76 60.3272 17.8525C60.5379 17.945 60.4326 17.9582 59.8929 17.9054C59.498 17.8525 59.0767 17.8261 58.9714 17.8261C58.6818 17.8261 55.2462 17.6279 46.9929 17.1125C42.9781 16.8614 38.9501 16.6236 38.0418 16.5839C37.1336 16.5443 36.0015 16.4782 35.5145 16.4386C34.9616 16.3989 34.6194 16.4254 34.6194 16.5047C34.6194 16.5707 34.6984 16.65 34.7905 16.6897C34.8695 16.7161 34.7773 16.7161 34.5536 16.6764C34.2508 16.6368 34.1982 16.6632 34.3166 16.7822C34.5404 17.02 35.6461 17.1125 51.9291 18.2357C54.101 18.3811 57.0759 18.5925 58.537 18.6982C59.9982 18.8039 61.2882 18.8964 61.3935 18.8964C61.4988 18.8964 61.5778 19.0022 61.5646 19.1607C61.5514 19.2929 61.5251 19.3854 61.4856 19.3457C61.3671 19.2268 58.5634 23.6536 58.6555 23.8122C58.7082 23.8914 58.695 23.9179 58.616 23.8782C58.4712 23.7857 57.7472 24.79 57.7472 25.0675C57.7472 25.16 57.7078 25.2129 57.6683 25.1732C57.563 25.0543 55.6806 28.0275 55.7728 28.1861C55.8122 28.2522 55.7859 28.2786 55.7201 28.2389C55.5753 28.1464 53.9299 30.5911 53.9299 30.895C53.9299 30.9743 53.8904 31.0272 53.8641 30.9875C53.7325 30.8554 51.6132 34.225 51.679 34.4629C51.7316 34.6082 51.7185 34.6347 51.6395 34.5289C51.5737 34.4364 51.1525 34.9518 50.4285 36.0486C49.823 36.9604 49.3228 37.7929 49.3228 37.8854C49.3228 37.9779 49.2833 38.0175 49.2306 37.9911C49.1911 37.9647 48.8489 38.4404 48.4671 39.0482C47.9275 39.9204 47.7958 40.2243 47.8616 40.4886L47.9406 40.8322H54.0484C59.9192 40.8322 60.1561 40.8189 60.2878 40.5811C60.3536 40.4357 62.565 37.0661 65.1977 33.0754C67.8303 29.0979 71.0027 24.2747 72.2532 22.3586L74.5304 18.8964H76.7024C78.4004 18.8964 78.8611 18.9361 78.8085 19.0682C78.7821 19.1475 77.7159 20.7993 76.4522 22.7286C75.1886 24.6579 73.7143 26.9175 73.1614 27.75C72.6217 28.5825 71.437 30.3929 70.5288 31.7804C66.0796 38.5857 65.2503 39.8411 65.1977 39.9997C65.1582 40.0922 65.1713 40.3168 65.2108 40.5018L65.2898 40.8322H71.3844H77.4658L79.4403 37.8193C80.5197 36.1675 83.771 31.2386 86.6669 26.8514L91.9191 18.8964H93.9331C95.0519 18.8964 95.9602 18.9229 95.9602 18.9625C95.9602 19.0022 94.9335 20.5879 93.6961 22.4907C89.8393 28.3843 84.9952 35.7711 83.5209 38.0043C82.2178 39.9997 82.1388 40.1582 82.2836 40.4886L82.4415 40.8322H88.9705H95.4995L96.4999 39.2729C97.0528 38.4272 98.5007 36.2072 99.7117 34.3572C109.847 18.8964 110.756 17.4429 111.269 15.9232C111.546 15.1304 111.559 13.5447 111.295 12.9104C110.848 11.84 109.729 10.9679 107.978 10.3468L106.952 9.9768L86.7459 9.96358C75.6361 9.96358 66.2112 9.9768 65.8163 10.0032ZM61.4725 17.7864C61.4725 17.8129 61.3277 17.8393 61.1434 17.8393C60.9591 17.8393 60.8143 17.7864 60.8143 17.7204C60.8143 17.6675 60.9591 17.6411 61.1434 17.6807C61.3277 17.7072 61.4725 17.76 61.4725 17.7864Z" fill="#ACB0B7"/>
<path d="M60.9459 15.0643C60.8274 15.1436 60.8143 15.1964 60.9064 15.1964C60.9854 15.1964 61.1039 15.1304 61.1434 15.0643C61.2487 14.9057 61.196 14.9057 60.9459 15.0643Z" fill="#ACB0B7"/>
<path d="M60.2878 16.0422C60.2878 16.0686 60.4063 16.1214 60.5511 16.1611C60.6959 16.2007 60.788 16.1743 60.7354 16.1082C60.6696 15.9893 60.2878 15.9364 60.2878 16.0422Z" fill="#ACB0B7"/>
<path d="M33.2768 16.8747C33.3689 16.9143 33.4874 16.9011 33.5269 16.8614C33.5795 16.8218 33.5006 16.7822 33.3558 16.7954C33.211 16.7954 33.1715 16.835 33.2768 16.8747Z" fill="#ACB0B7"/>
<path d="M59.6296 17.7072C59.6296 17.7732 59.6955 17.8393 59.7744 17.8393C59.8403 17.8393 59.8666 17.7732 59.8271 17.7072C59.7876 17.6279 59.7218 17.575 59.6823 17.575C59.656 17.575 59.6296 17.6279 59.6296 17.7072Z" fill="#ACB0B7"/>
<path d="M29.9728 19.3193C29.9333 19.6232 29.8017 19.9404 29.6963 20.0329C29.5647 20.1254 29.4857 20.3896 29.4857 20.7332C29.4857 21.1164 29.4331 21.275 29.3014 21.275C29.1961 21.275 29.0908 21.2221 29.0645 21.1561C29.0513 21.1032 28.9065 21.1693 28.7618 21.3146C28.617 21.46 28.5775 21.5393 28.6828 21.4732C28.8012 21.4072 28.8407 21.4336 28.8012 21.5393C28.7091 21.8168 28.459 21.8432 28.3932 21.5789C28.3405 21.3807 28.3274 21.3939 28.3142 21.6318C28.3142 21.7904 28.2484 21.9357 28.1694 21.9621C28.1036 21.9754 28.0378 22.2264 28.0114 22.5171C27.9983 22.7946 27.9061 23.0457 27.814 23.0854C27.7219 23.125 27.6824 23.2175 27.735 23.2968C27.7877 23.3893 27.6165 23.4025 27.2348 23.3496C26.7609 23.2968 26.7214 23.2968 27.0505 23.4025C28.1168 23.7196 31.3286 24.5786 37.2521 26.1511C40.8325 27.1025 45.1895 28.2521 46.9271 28.7146L50.0862 29.5471L52.6268 25.7414L55.1541 21.9357L54.9567 21.5393C54.8382 21.3146 54.6539 21.1429 54.5223 21.1429C54.3906 21.1429 53.1401 21.0239 51.7317 20.8786C47.809 20.4689 34.6194 19.1872 32.8424 19.0286C31.9736 18.9625 30.9863 18.87 30.6573 18.8304L30.0518 18.7511L29.9728 19.3193Z" fill="#ACB0B7"/>
<path d="M25.8659 25.7547C25.8133 25.8472 25.8791 25.8736 26.0239 25.8207C26.2345 25.7547 26.2345 25.7679 26.0634 25.9264C25.9449 26.0189 25.8791 26.1907 25.9054 26.3229C25.9317 26.4418 25.8791 26.5739 25.8133 26.6268C25.7343 26.6664 25.6685 26.825 25.6685 26.9704C25.6685 27.1289 25.5763 27.2214 25.4052 27.2214C25.1814 27.2214 25.1419 27.3139 25.1419 27.75C25.1419 28.1068 25.0761 28.3182 24.9445 28.3579C24.8392 28.4107 24.747 28.5561 24.747 28.7014C24.747 28.8468 24.6812 28.9393 24.5891 28.8997C24.4969 28.8732 24.4311 28.7675 24.4574 28.6882C24.4706 28.5957 24.4311 28.5561 24.3521 28.6089C24.2731 28.6486 24.2468 28.7411 24.2863 28.8072C24.3258 28.86 24.2731 28.9393 24.1678 28.9789C23.9441 29.0714 23.7729 30.1022 23.9572 30.3268C24.023 30.4061 24.0625 30.5118 24.0362 30.5382C23.9967 30.5647 24.3653 30.8025 24.8523 31.0536C25.3394 31.3047 26.4188 31.8729 27.248 32.3222C29.6833 33.6172 42.7807 40.4357 42.8465 40.4357C42.886 40.4357 44.0312 38.7443 45.4002 36.6829C47.8222 33.0489 47.9012 32.9168 47.7564 32.5336C47.6379 32.2297 47.48 32.0975 47.1377 32.005C46.8745 31.9389 43.7021 30.9743 40.0822 29.8643C36.4623 28.7543 31.9078 27.38 29.9465 26.8118C27.9984 26.2304 26.3003 25.7282 26.1687 25.6886C26.0502 25.6489 25.9186 25.6886 25.8659 25.7547ZM25.5368 28.1464C25.5368 28.2125 25.471 28.2786 25.392 28.2786C25.3262 28.2786 25.2999 28.2125 25.3394 28.1464C25.3789 28.0672 25.4447 28.0143 25.4842 28.0143C25.5105 28.0143 25.5368 28.0672 25.5368 28.1464Z" fill="#ACB0B7"/>
<path d="M7.88484 54.7336C6.34473 56.9404 4.26494 59.9004 3.26453 61.3275C2.26412 62.7547 1.448 63.9704 1.448 64.01C1.448 64.0497 2.50106 64.0893 3.79106 64.0893L6.12096 64.0761L9.64871 59.0679L13.1896 54.0464H14.835C16.2303 54.0464 16.4673 54.0729 16.4146 54.2447C16.362 54.3504 14.8877 56.5307 13.1238 59.0943C11.3599 61.6579 9.87249 63.8382 9.81984 63.9175C9.74086 64.0497 10.1489 64.0893 11.6759 64.0893H13.624L17.1123 59.0679L20.6006 54.0464H22.2854C23.2069 54.0464 23.9572 54.0729 23.9572 54.1125C23.9572 54.1654 21.2719 58.0636 17.3492 63.7193L17.0991 64.0893H19.2579H21.4298L24.6022 59.4775C26.3397 56.9404 27.8535 54.6675 27.972 54.4297C28.1431 54.1257 28.1826 53.7689 28.1431 53.1743C28.0905 52.2889 27.7482 51.6943 26.9321 51.0864C26.5767 50.8089 26.4187 50.8089 18.6261 50.7693L10.6886 50.7429L7.88484 54.7336Z" fill="#ACB0B7"/>
<path d="M126.025 52.5796C124.604 53.2271 124.525 55.3282 125.867 56.1607C126.42 56.4911 127.342 56.5043 127.947 56.1739C128.605 55.8304 129.04 54.945 128.947 54.1918C128.803 53.1611 127.908 52.3286 126.933 52.3286C126.736 52.3286 126.328 52.4475 126.025 52.5796ZM128.013 53.0421C129.237 53.9804 128.658 55.9493 127.118 56.1211C125.196 56.3457 124.419 53.7689 126.131 52.8307C126.697 52.5136 127.434 52.6061 128.013 53.0421Z" fill="#ACB0B7"/>
<path d="M126.236 53.28C126.236 53.3064 126.209 53.8218 126.196 54.4297C126.183 55.2225 126.223 55.5529 126.341 55.5925C126.446 55.6322 126.499 55.4868 126.499 55.1168C126.499 54.39 126.828 54.4032 127.328 55.1168C127.776 55.7643 127.973 55.7114 127.565 55.0639C127.289 54.6147 127.289 54.6147 127.552 54.3768C127.842 54.1125 127.894 53.65 127.657 53.4122C127.526 53.28 126.249 53.1743 126.236 53.28ZM127.499 53.7161C127.618 54.02 127.302 54.3107 126.881 54.3107C126.539 54.3107 126.499 54.2579 126.499 53.9143C126.499 53.5443 126.539 53.5179 126.96 53.5179C127.262 53.5179 127.46 53.5972 127.499 53.7161Z" fill="#ACB0B7"/>
<path d="M32.6449 53.9011C30.6178 54.5618 30.0781 55.0507 27.7745 58.3543C26.6951 59.9004 25.7079 61.3672 25.5894 61.5918C25.1418 62.4772 25.4051 63.3361 26.2344 63.7457C26.6293 63.9307 27.2348 63.9572 30.5651 63.9572C34.7642 63.9572 35.554 63.8647 36.7387 63.2172C37.6338 62.715 38.0418 62.2393 40.3322 59.0018C42.1093 56.4779 42.3857 56.0286 42.3857 55.5925C42.3857 54.8789 42.083 54.3768 41.4248 53.9804L40.8456 53.65L37.1072 53.6632C33.8954 53.6632 33.2636 53.7029 32.6449 53.9011ZM37.7522 56.4514C37.8444 56.5439 37.9102 56.7025 37.9102 56.8082C37.897 57.2047 35.2381 60.8254 34.751 61.1161C34.3561 61.3407 34.0139 61.3804 32.2895 61.42C30.2492 61.4729 29.749 61.3804 29.749 60.9575C29.749 60.6668 32.171 57.1914 32.5396 56.9668C33.5268 56.3457 33.7111 56.3061 35.6724 56.2929C37.0019 56.2929 37.6469 56.3457 37.7522 56.4514Z" fill="#ACB0B7"/>
<path d="M43.3598 58.1693C41.6355 60.6668 40.0164 62.9925 39.7794 63.3361L39.3187 63.9704L45.2948 63.9307C51.2183 63.8911 51.271 63.8911 51.9423 63.5872C52.7716 63.2039 53.1928 62.7811 54.2195 61.2614C55.1015 59.9664 55.2463 59.3718 54.7592 59.0282C54.5223 58.8564 54.5486 58.83 55.1936 58.5657C56.1545 58.1693 56.7732 57.6143 57.5235 56.4779C58.287 55.3547 58.366 54.8789 57.8526 54.3636C57.155 53.6632 57.0102 53.65 51.5606 53.65H46.5059L43.3598 58.1693ZM52.9164 56.3722C52.9164 56.425 52.7058 56.7422 52.4425 57.0989L51.9686 57.7464H50.0073C48.9279 57.7464 48.046 57.7068 48.046 57.6407C48.046 57.5879 48.2566 57.2707 48.5067 56.9139L48.9674 56.2929H50.9419C52.0344 56.2929 52.9164 56.3325 52.9164 56.3722ZM50.3232 60.1647C50.2706 60.2572 50.0468 60.5743 49.8362 60.8914L49.4544 61.4464H47.4273C45.8214 61.4464 45.4265 61.4068 45.5055 61.2747C45.5581 61.1822 45.7819 60.865 45.9925 60.5479L46.3742 59.9929H48.4014C50.0073 59.9929 50.4022 60.0325 50.3232 60.1647Z" fill="#ACB0B7"/>
<path d="M63.0915 53.8482C61.2487 54.3504 60.6432 54.945 58.1553 58.6582C57.0627 60.2968 55.8517 62.0939 55.4832 62.6357C55.1146 63.1775 54.7592 63.7061 54.7065 63.7854C54.6275 63.9175 55.0883 63.9572 56.8258 63.9572L59.0372 63.9439L61.4066 60.4818C62.7098 58.5789 64.3025 56.2664 64.9344 55.3414L66.0927 53.65L64.9344 53.6632C64.3025 53.6632 63.4601 53.7557 63.0915 53.8482Z" fill="#ACB0B7"/>
<path d="M66.0665 57.0461C64.816 58.9225 63.5392 60.8254 63.2233 61.2879C62.5388 62.2922 62.4993 62.7282 63.039 63.2568C63.684 63.9175 64.0789 63.9572 69.0678 63.9572H73.6749L74.412 62.7018L75.1492 61.4464H71.3977C69.3442 61.4464 67.6593 61.4068 67.6593 61.3539C67.6593 61.3143 67.7383 61.1689 67.8304 61.0632C68.0015 60.865 72.4902 54.1918 72.714 53.8086C72.793 53.6897 72.3191 53.65 70.5684 53.65H68.3306L66.0665 57.0461Z" fill="#ACB0B7"/>
<path d="M83.4683 53.8614C82.4153 54.1389 81.1779 54.7864 80.6514 55.3414C80.217 55.8039 76.3075 61.3143 75.9653 61.9486C75.623 62.5961 76.0706 63.3493 77.0315 63.7589C77.4396 63.9175 78.2557 63.9572 82.0467 63.9572H86.5749L87.3778 62.7811C87.8254 62.1336 88.194 61.5654 88.194 61.5257C88.194 61.4861 86.5091 61.4332 84.4424 61.42L80.6909 61.3804L81.1516 60.68L81.6255 59.9929H85.4692H89.326L90.0763 58.8961L90.8135 57.8125L87.0619 57.7729C85.0085 57.7597 83.3236 57.7068 83.3236 57.6804C83.3236 57.6407 83.521 57.3104 83.7579 56.9536L84.1792 56.2929H88.0228H91.8533L92.7221 55.0375C93.196 54.3504 93.5909 53.7557 93.5909 53.7161C93.5909 53.6764 91.4716 53.65 88.8916 53.6632C85.1927 53.6632 84.0212 53.7029 83.4683 53.8614Z" fill="#ACB0B7"/>
<path d="M96.026 53.9011C95.7364 54.0332 95.381 54.2843 95.2231 54.4561C94.7097 55.0375 92.6299 58.0768 92.4851 58.4336C92.1824 59.2529 92.9722 59.8343 94.6044 59.9797L95.5522 60.0589L94.3675 61.7768C93.7093 62.715 93.1169 63.6004 93.0511 63.7193C92.9327 63.9439 93.0775 63.9572 95.2099 63.9572H97.5003L98.8561 61.9882L100.212 60.0193L101.607 59.9664C102.871 59.9268 103.095 59.8872 103.858 59.5039C104.332 59.2661 104.898 58.8829 105.122 58.645C105.504 58.2486 108.597 53.8482 108.597 53.7029C108.597 53.6764 107.741 53.65 106.688 53.65C104.082 53.65 104.214 53.5707 102.41 56.2664L101.423 57.7464H99.409C98.2901 57.7464 97.4082 57.7068 97.4345 57.6407C97.4608 57.5879 98.0137 56.7422 98.6718 55.7643C99.33 54.7864 99.9092 53.9011 99.9618 53.8086C100.041 53.6897 99.6723 53.65 98.3033 53.65C96.8816 53.65 96.4473 53.7029 96.026 53.9011Z" fill="#ACB0B7"/>
<path d="M112.585 53.8482C110.348 54.4561 110.019 54.7468 107.32 58.5922C105.964 60.5347 104.99 62.0543 104.951 62.2922C104.872 62.8207 105.293 63.3757 106.017 63.7061C106.504 63.9307 106.965 63.9572 111.098 63.9572H115.639L116.469 62.7679C116.916 62.1204 117.285 61.5522 117.285 61.5125C117.285 61.4729 115.6 61.4464 113.533 61.4464C111.467 61.4464 109.782 61.4068 109.782 61.3672C109.782 61.3143 109.992 60.9972 110.256 60.6404L110.729 59.9929H114.56L118.404 59.9797L119.167 58.8697L119.931 57.7464H116.179C114.112 57.7464 112.414 57.7068 112.414 57.6539C112.414 57.6143 112.599 57.2839 112.822 56.9272L113.23 56.2929H117.074H120.918L121.708 55.13C122.142 54.4957 122.55 53.9011 122.603 53.8086C122.747 53.5575 113.533 53.5972 112.585 53.8482Z" fill="#ACB0B7"/>
</svg>
