<svg width="145" height="117" viewBox="0 0 145 117" fill="none" xmlns="http://www.w3.org/2000/svg">
<path d="M56.149 29.0191C54.5293 29.6349 53.2181 30.7125 53.2181 31.2513C53.2181 32.175 53.6038 32.175 55.532 31.1744C58.5399 29.6349 59.3112 29.7119 58.8485 31.4822C58.4628 33.0987 61.008 36.1776 62.782 36.1776C64.4788 36.1776 66.3298 33.9454 66.3298 31.8671C66.3298 29.7888 66.7926 29.6349 69.7235 30.7895C72.8086 31.9441 72.1915 30.1737 69.0293 28.7882C65.6357 27.4026 59.774 27.4796 56.149 29.0191Z" fill="#ACB0B7"/>
<path d="M15.4255 39.6414C15.4255 41.1809 15.8112 41.5658 17.3537 41.5658H19.2819V49.648C19.2819 57.1914 19.2048 57.7303 17.7394 57.7303C16.5825 57.7303 16.1968 58.2691 16.1968 59.6546C16.1968 61.502 16.4282 61.5789 20.2846 61.5789C22.4442 61.5789 25.0665 61.348 26.0692 61.1171C28.2287 60.5013 28.383 57.7303 26.2234 57.7303C24.758 57.7303 24.6809 57.2684 24.758 50.5717V43.4901L26.9947 50.4178C28.2287 54.1895 29.4628 58.3461 29.7713 59.5007C30.1569 61.425 30.5426 61.6559 32.9335 61.425L35.7101 61.1941L38.5638 52.3421L41.4947 43.4901L41.5718 50.5717C41.6489 57.7303 41.6489 57.7303 39.7207 57.7303C38.1782 57.7303 37.7926 58.1151 37.7926 59.6546V61.5789H45.5053H53.2181V59.6546C53.2181 58.1151 52.8325 57.7303 51.2899 57.7303H49.3617V49.648V41.5658H51.2899C52.8325 41.5658 53.2181 41.1809 53.2181 39.6414C53.2181 37.7171 53.2181 37.7171 45.5825 37.7171H37.9468L36.1729 43.4901C35.2473 46.6461 34.2447 49.2632 33.9362 49.2632C33.6277 49.2632 32.625 46.6461 31.6995 43.4901L30.0027 37.7171H22.7527C15.4255 37.7171 15.4255 37.7171 15.4255 39.6414Z" fill="#ACB0B7"/>
<path d="M54.7607 39.6414C54.7607 41.1809 55.1464 41.5658 56.6889 41.5658H58.6171V49.648C58.6171 57.1914 58.54 57.7303 57.0746 57.7303C55.9177 57.7303 55.532 58.2691 55.532 59.6546C55.532 61.502 55.6863 61.5789 60.8538 61.5789C68.2581 61.5789 70.9576 60.9632 70.9576 59.1928C70.9576 58.1151 70.4177 57.7303 69.0294 57.7303H67.1012V49.648V41.5658H69.0294C70.5719 41.5658 70.9576 41.1809 70.9576 39.6414V37.7171H62.8591H54.7607V39.6414Z" fill="#ACB0B7"/>
<path d="M72.5 39.9493C72.5 41.9507 72.8085 42.3355 74.4282 42.3355H76.3564V50.0329V57.7303H74.4282C72.8856 57.7303 72.5 58.1151 72.5 59.6546V61.5789H80.5984H88.6968V59.6546C88.6968 58.1151 88.3112 57.7303 86.7686 57.7303C84.9947 57.7303 84.8404 57.4224 84.8404 54.1895C84.8404 50.7257 84.8404 50.7257 87.3856 50.9566C89.6995 51.1875 89.8537 51.4184 90.2394 54.8053C90.7793 59.5007 92.7074 61.5789 96.5638 61.5789C99.4947 61.5789 102.58 59.5776 102.58 57.5763C102.58 57.0375 103.12 57.1914 103.968 57.9612C108.056 61.6559 116.694 62.6566 121.707 60.1164C129.112 56.3447 129.652 45.0296 122.71 40.0263C117.157 36.1776 107.593 37.5632 103.505 42.9513C101.809 45.1066 101.423 46.4921 101.423 49.802C101.423 52.0342 101.191 53.8816 100.883 53.8816C100.497 53.8816 100.266 54.5743 100.266 55.3441C100.266 56.1908 99.9574 57.1145 99.4947 57.3454C99.0319 57.6533 98.7234 56.5757 98.7234 54.6513C98.7234 52.573 98.2606 51.1875 97.258 50.2638C95.8697 49.1092 95.8697 48.8013 96.8723 47.4158C98.4149 45.2605 98.2606 42.1046 96.4867 39.9493C95.0984 38.1789 94.4814 38.102 83.7606 37.8711L72.5 37.5632V39.9493ZM89.7766 43.2592C90.9335 45.1836 89.5452 47.2618 86.8457 47.5697C84.9947 47.8007 84.8404 47.6467 84.8404 44.6447C84.8404 41.6428 84.9947 41.4888 86.8457 41.7197C88.0027 41.8737 89.3138 42.5664 89.7766 43.2592ZM118.699 43.5671C119.934 45.1066 120.319 46.723 120.319 50.0329C120.319 56.7296 117.08 59.8855 112.221 58.0382C108.673 56.6526 107.439 47.2618 110.37 43.5671C111.527 42.1046 112.684 41.5658 114.535 41.5658C116.386 41.5658 117.543 42.1046 118.699 43.5671Z" fill="#ACB0B7"/>
<path d="M14.0373 74.0487L14.2687 83.5164L42.8059 89.1355L71.3431 94.7546L89.0825 91.1368C98.8777 89.1355 112.067 86.4415 118.391 85.1329L129.96 82.7467V73.8947V65.0428L71.883 64.8118L13.8059 64.6579L14.0373 74.0487ZM128.649 74.0487L128.418 81.9L99.9575 87.75L71.4974 93.6L43.6543 88.1349L15.8112 82.5928L15.5798 74.4336L15.3485 66.1974H72.1144H128.88L128.649 74.0487Z" fill="#ACB0B7"/>
<path d="M22.3671 69.8921C19.8219 71.9704 20.9017 74.3566 24.7581 75.5112C26.3778 76.05 27.7661 76.8967 27.7661 77.5125C27.7661 78.975 23.2155 78.8211 22.6756 77.3586C21.9815 75.5882 20.8246 75.973 20.8246 77.9744C20.8246 79.6678 21.2102 79.8217 24.681 79.9757C28.1517 80.0526 28.6916 79.8987 29.4629 78.1283C30.5427 75.7421 29.3858 74.1257 25.915 73.279C24.6038 72.8941 23.4469 72.0474 23.2927 71.3546C22.907 69.3533 26.6092 69.6612 28.0746 71.7395L29.3086 73.4329V71.4316C29.3086 70.0461 28.8459 69.3533 27.6118 68.9684C24.9124 68.2757 24.2182 68.4296 22.3671 69.8921Z" fill="#ACB0B7"/>
<path d="M45.1968 70.123C43.7314 71.2776 43.1915 72.4322 43.1915 74.3566C43.1915 78.2053 45.4282 80.1296 49.7474 79.8987C52.9867 79.8217 53.2181 79.6678 53.2181 77.5895C53.2181 76.4349 53.6038 75.4342 53.9894 75.4342C54.4522 75.4342 54.7607 75.0493 54.7607 74.6645C54.7607 74.2026 53.5266 73.8947 52.0612 73.8947C49.516 73.8947 48.3591 74.9724 50.2873 75.5882C51.6756 76.05 50.3644 78.5132 48.6676 78.5132C46.5851 78.5132 45.274 75.8961 45.891 73.125C46.5851 70.123 49.2075 69.2763 50.9814 71.5086C52.7554 73.6638 53.2181 73.5868 53.2181 71.1237C53.2181 69.6612 52.9096 69.1993 52.0612 69.5072C51.4442 69.8151 50.75 69.6612 50.5187 69.2763C49.7474 68.0447 47.3564 68.4296 45.1968 70.123Z" fill="#ACB0B7"/>
<path d="M31.4681 69.8151C32.625 70.277 32.7793 78.5132 31.6224 78.5132C31.2367 78.5132 30.8511 78.8211 30.8511 79.2829C30.8511 79.7447 33.1649 80.0526 36.25 80.0526H41.6489V77.7434C41.6489 75.1263 40.492 74.6645 39.875 76.9737C39.5665 78.1283 38.7952 78.5132 37.0984 78.5132C35.0931 78.5132 34.7075 78.2053 34.7075 76.5888C34.7075 74.3566 36.0186 74.0487 37.4841 75.973C38.4096 77.2046 38.4867 76.9737 38.4867 74.2796C38.4867 71.5855 38.4096 71.3546 37.4841 72.5092C36.0186 74.5105 34.7075 74.2026 34.7075 71.9704C34.7075 70.354 35.0931 70.0461 37.0984 70.0461C38.7952 70.0461 39.5665 70.4309 39.875 71.5855C40.4149 73.7408 41.6489 73.5099 41.6489 71.2007C41.6489 69.3533 41.4947 69.2763 36.0958 69.3533C33.0106 69.3533 30.9282 69.5842 31.4681 69.8151Z" fill="#ACB0B7"/>
<path d="M56.1489 69.8151C56.6888 70.0461 57.0745 71.6625 57.0745 74.2026C57.0745 78.7441 58 80.0526 61.008 80.0526C64.1702 80.0526 65.5585 78.2053 65.5585 73.8947C65.5585 71.6625 65.9442 70.0461 66.5612 69.8151C67.0239 69.5842 66.2527 69.4303 64.7872 69.4303C63.3218 69.4303 62.5505 69.5842 63.0904 69.8151C63.6303 70.0461 64.016 71.7395 64.016 74.3566C64.016 78.4362 64.016 78.5132 61.7021 78.5132C59.3883 78.5132 59.3883 78.4362 59.3883 74.3566C59.3883 71.7395 59.7739 70.0461 60.391 69.8151C60.8537 69.5842 59.9282 69.4303 58.2314 69.4303C56.5346 69.4303 55.6091 69.5842 56.1489 69.8151Z" fill="#ACB0B7"/>
<path d="M68.4895 69.8151C69.6464 70.277 69.8006 78.5132 68.6437 78.5132C68.2581 78.5132 67.8724 78.8211 67.8724 79.2829C67.8724 79.6678 69.1065 80.0526 70.5719 80.0526C72.0373 80.0526 73.2714 79.6678 73.2714 79.2829C73.2714 78.8211 72.9629 78.5132 72.5001 78.5132C72.1145 78.5132 71.7288 77.5895 71.7288 76.5119C71.7288 74.8954 72.0373 74.5875 73.4256 74.8184C74.7368 74.9724 75.2767 75.7421 75.5852 77.3586C76.048 80.1296 78.9017 80.6684 79.2102 78.1283L79.4416 76.5888L78.7474 78.1283C78.2075 79.3599 77.9762 79.4369 77.6676 78.5132C76.7421 75.8191 76.5107 73.8947 77.2049 73.4329C77.5905 73.202 77.899 72.2013 77.899 71.1237C77.899 69.3533 77.7448 69.2763 72.7315 69.3533C69.8006 69.3533 67.9496 69.5842 68.4895 69.8151ZM75.5852 71.5855C75.5852 72.7401 75.0453 73.125 73.657 73.125C72.2687 73.125 71.7288 72.7401 71.7288 71.5855C71.7288 70.4309 72.2687 70.0461 73.657 70.0461C75.0453 70.0461 75.5852 70.4309 75.5852 71.5855Z" fill="#ACB0B7"/>
<path d="M81.2154 70.123C82.9894 71.1237 83.1436 78.5132 81.3697 78.5132C80.7527 78.5132 80.2128 78.8211 80.2128 79.2829C80.2128 79.6678 81.4468 80.0526 82.9122 80.0526C84.3777 80.0526 85.6117 79.6678 85.6117 79.2829C85.6117 78.8211 85.3032 78.5132 84.8404 78.5132C83.6835 78.5132 83.8378 70.277 85.0718 69.8151C85.5346 69.5842 84.609 69.3533 82.9122 69.3533C80.4442 69.3533 80.1356 69.5072 81.2154 70.123Z" fill="#ACB0B7"/>
<path d="M88.157 70.123C89.9309 71.1237 90.0851 78.5132 88.3112 78.5132C87.6942 78.5132 87.1543 78.8211 87.1543 79.2829C87.1543 80.4375 96.1011 80.2066 97.1038 79.052C98.7234 77.0507 98.9548 73.2789 97.6437 71.2007C96.4867 69.5072 95.8697 69.2763 91.5506 69.2763C87.9256 69.3533 87.0772 69.5072 88.157 70.123ZM95.4841 72.3553C97.0266 75.1263 95.6383 78.5132 92.9389 78.5132C91.1649 78.5132 91.0107 78.2822 91.0107 74.8184C91.0107 72.7401 91.2421 70.8158 91.5506 70.5079C92.5532 69.5842 94.4043 70.4309 95.4841 72.3553Z" fill="#ACB0B7"/>
<path d="M102.117 72.1244C101.114 74.5875 100.189 76.8197 98.8777 79.4369C98.7234 79.8217 99.4947 80.0526 100.574 80.0526C102.348 80.0526 102.58 79.8217 102.117 78.1283C101.731 76.4349 101.886 76.204 103.582 76.204C105.665 76.204 107.362 77.8204 105.819 78.3592C103.891 78.975 105.048 80.0526 107.593 80.0526C109.059 80.0526 110.293 79.9757 110.293 79.8217C110.293 79.6678 109.598 78.1283 108.75 76.3579C107.902 74.5875 106.822 72.2783 106.436 71.2007C105.356 68.4296 103.428 68.8145 102.117 72.1244ZM104.894 74.0487C104.894 74.4336 104.354 74.6645 103.737 74.6645C102.426 74.6645 102.348 74.5105 103.043 72.7401C103.428 71.7395 103.66 71.6625 104.199 72.5092C104.585 73.048 104.894 73.7408 104.894 74.0487Z" fill="#ACB0B7"/>
<path d="M112.452 70.2C113.532 71.2776 113.686 78.5132 112.606 78.5132C112.221 78.5132 111.835 78.8211 111.835 79.2829C111.835 79.6678 113.609 80.0526 115.692 80.0526C120.396 80.0526 122.633 78.2053 122.633 74.4336C122.633 70.7388 120.705 69.2763 115.692 69.2763C112.452 69.2763 111.758 69.5072 112.452 70.2ZM119.702 71.9704C120.936 74.6645 119.702 78.0513 117.388 78.3592C115.846 78.5901 115.692 78.3592 115.692 74.3566C115.692 70.5079 115.846 70.0461 117.234 70.0461C118.16 70.0461 119.162 70.8158 119.702 71.9704Z" fill="#ACB0B7"/>
</svg>
